<?xml version="1.0" encoding="UTF-8" standalone="no"?>
<!-- Created with Inkscape (http://www.inkscape.org/) -->

<svg
   xmlns:dc="http://purl.org/dc/elements/1.1/"
   xmlns:cc="http://creativecommons.org/ns#"
   xmlns:rdf="http://www.w3.org/1999/02/22-rdf-syntax-ns#"
   xmlns:svg="http://www.w3.org/2000/svg"
   xmlns="http://www.w3.org/2000/svg"
   xmlns:xlink="http://www.w3.org/1999/xlink"
   xmlns:sodipodi="http://sodipodi.sourceforge.net/DTD/sodipodi-0.dtd"
   xmlns:inkscape="http://www.inkscape.org/namespaces/inkscape"
   width="1920"
   height="1200"
   id="svg2"
   sodipodi:version="0.32"
   inkscape:version="0.47pre4 r22446"
   sodipodi:docname="background.svg"
   version="1.0"
   inkscape:output_extension="org.inkscape.output.svg.inkscape">
  <sodipodi:namedview
     id="base"
     pagecolor="#ffffff"
     bordercolor="#666666"
     borderopacity="1.0"
     inkscape:pageopacity="0.0"
     inkscape:pageshadow="2"
     inkscape:zoom="0.32636753"
     inkscape:cx="812.97016"
     inkscape:cy="455.3436"
     inkscape:document-units="px"
     inkscape:current-layer="layer1"
     showgrid="true"
     inkscape:window-width="1280"
     inkscape:window-height="964"
     inkscape:window-x="-4"
     inkscape:window-y="-3"
     inkscape:window-maximized="1">
    <inkscape:grid
       type="xygrid"
       id="grid2381"
       visible="true"
       enabled="true" />
  </sodipodi:namedview>
  <defs
     id="defs4">
    <linearGradient
       id="linearGradient3450">
      <stop
         style="stop-color:#ffe4aa;stop-opacity:1;"
         offset="0"
         id="stop3452" />
      <stop
         style="stop-color:#ffe400;stop-opacity:1;"
         offset="1"
         id="stop3454" />
    </linearGradient>
    <radialGradient
       inkscape:collect="always"
       xlink:href="#linearGradient3450"
       id="radialGradient5120"
       gradientUnits="userSpaceOnUse"
       gradientTransform="matrix(1,0,0,0.75,0,96)"
       cx="512"
       cy="384"
       fx="512"
       fy="384"
       r="512" />
    <inkscape:perspective
       id="perspective10"
       inkscape:persp3d-origin="372.04724 : 350.78739 : 1"
       inkscape:vp_z="744.09448 : 526.18109 : 1"
       inkscape:vp_y="0 : 1000 : 0"
       inkscape:vp_x="0 : 526.18109 : 1"
       sodipodi:type="inkscape:persp3d" />
    <inkscape:perspective
       sodipodi:type="inkscape:persp3d"
       inkscape:vp_x="0 : 526.18109 : 1"
       inkscape:vp_y="0 : 1000 : 0"
       inkscape:vp_z="744.09448 : 526.18109 : 1"
       inkscape:persp3d-origin="372.04724 : 350.78739 : 1"
       id="perspective2390" />
    <radialGradient
       inkscape:collect="always"
       xlink:href="#linearGradient3450"
       id="radialGradient2738"
       gradientUnits="userSpaceOnUse"
       gradientTransform="matrix(1,0,0,0.75,0,96)"
       cx="512"
       cy="384"
       fx="512"
       fy="384"
       r="512" />
    <radialGradient
       inkscape:collect="always"
       xlink:href="#linearGradient3450"
       id="radialGradient2760"
       gradientUnits="userSpaceOnUse"
       gradientTransform="matrix(1.875,0,0,1.171875,-57.142864,-206.20925)"
       cx="512"
       cy="384"
       fx="512"
       fy="384"
       r="512" />
    <radialGradient
       inkscape:collect="always"
       xlink:href="#linearGradient3450"
       id="radialGradient2863"
       gradientUnits="userSpaceOnUse"
       gradientTransform="matrix(1.875,0,0,1.171875,-57.142864,-206.20925)"
       cx="512"
       cy="384"
       fx="512"
       fy="384"
       r="512" />
    <radialGradient
       inkscape:collect="always"
       xlink:href="#linearGradient3450"
       id="radialGradient2862"
       gradientUnits="userSpaceOnUse"
       gradientTransform="matrix(1.875,0,0,1.171875,-57.142864,-206.20925)"
       cx="512"
       cy="384"
       fx="512"
       fy="384"
       r="512" />
  </defs>
  <metadata
     id="metadata7">
    <rdf:RDF>
      <cc:Work
         rdf:about="">
        <dc:format>image/svg+xml</dc:format>
        <dc:type
           rdf:resource="http://purl.org/dc/dcmitype/StillImage" />
      </cc:Work>
    </rdf:RDF>
  </metadata>
  <g
     id="layer1"
     inkscape:groupmode="layer"
     inkscape:label="Camada 1"
     transform="translate(57.142864,356.20926)">
    <rect
       style="fill:url(#radialGradient2862);fill-opacity:1"
       id="rect2635"
       width="1920"
       height="1200"
       x="-57.142864"
       y="-356.20926" />
    <g
       id="g2608"
       transform="matrix(1.9205546,0,0,1.9205546,-260.99888,-508.78598)">
      <g
         id="g3407"
         transform="translate(-14.181091,35.176813)">
        <g
           id="g3432"
           transform="matrix(1.6006483,0,0,1.6006483,-4.1791225,-250.18302)">
          <g
             transform="matrix(0.8289851,0,0,0.8287621,216.3394,154.76157)"
             id="g3312">
            <path
               id="path3847"
               d="m 125.53945,263.29856 0,45.45128 18.37588,0 c 3.11819,0 6.0114,-0.47595 8.69954,-1.46519 2.7096,-0.98921 5.07271,-2.46011 7.0512,-4.39554 1.97843,-1.93545 3.53047,-4.34368 4.67028,-7.20384 1.13972,-2.88164 1.70935,-6.19669 1.70939,-9.98158 -5e-5,-3.87086 -0.5877,-7.22543 -1.77044,-10.04262 -1.18282,-2.81712 -2.84658,-5.13168 -4.97552,-6.95964 -2.12903,-1.82787 -4.65452,-3.17805 -7.60065,-4.05978 -2.94621,-0.88165 -6.18006,-1.34304 -9.70686,-1.34309 l -16.45282,0 z m 144.29028,2.3504 -2.8388,8.21115 -2.1062,0 -9.76791,0 -12.45407,14.43818 0,-22.58828 -9.03532,0 0,43.03983 9.03532,0 0,-13.0951 3.90716,-2.71669 9.34056,15.81179 9.89,0 -13.18667,-21.27571 9.49317,-10.53103 0,3.05248 4.4261,0 0,20.57364 c -2e-5,2.94617 0.7264,5.13101 2.16725,6.59333 1.44083,1.44084 3.49936,2.16727 6.16599,2.16726 1.48383,0 2.843,-0.0812 4.0903,-0.27472 1.24728,-0.17203 2.42259,-0.45858 3.54087,-0.82416 l 0,-5.61656 c -0.55915,0.12904 -1.07465,0.24978 -1.52623,0.33578 -0.45164,0.086 -0.93659,0.1221 -1.49571,0.1221 -1.35483,0 -2.3768,-0.39478 -3.02195,-1.19046 -0.64516,-0.81719 -0.94626,-2.08617 -0.94626,-3.78506 l 0,-18.10115 6.59333,0 0,-6.13547 -6.59333,0 0,-8.21115 -5.6776,0 z m -134.79709,5.00605 6.74595,0 c 2.17199,4e-5 4.16738,0.30462 5.95232,0.88523 1.80639,0.58067 3.34944,1.46041 4.63976,2.68617 1.29026,1.2043 2.28172,2.77787 2.99142,4.67028 0.73113,1.89245 1.09884,4.16191 1.09888,6.807 -4e-5,2.58062 -0.34969,4.85008 -1.03783,6.80701 -0.66669,1.95697 -1.60401,3.58119 -2.80827,4.91448 -1.18282,1.31182 -2.57808,2.32478 -4.21241,2.99142 -1.6129,0.66667 -3.36687,0.9768 -5.28078,0.9768 l -8.08904,0 0,-30.73839 z m 204.63762,2.44199 c -2.51611,4e-5 -4.74047,0.50651 -6.65439,1.49571 -1.91395,0.98926 -3.42091,2.64399 -4.51766,4.94499 l -0.1221,0 c 0,-0.45158 -0.009,-0.9851 -0.0305,-1.58728 -0.0215,-0.60212 -0.0486,-1.18076 -0.0916,-1.73991 -0.0215,-0.5591 -0.0576,-1.0656 -0.1221,-1.49571 -0.043,-0.43008 -0.10963,-0.70411 -0.15262,-0.85469 l -8.79111,0 c 0.0645,0.77421 0.10961,1.86836 0.15262,3.26614 0.0645,1.39784 0.0916,2.97697 0.0916,4.76186 l 0,40.56732 9.06583,0 0,-13.36982 c -10e-6,-0.53761 -0.009,-1.11627 -0.0305,-1.73991 -1e-5,-0.64515 -0.009,-1.24181 -0.0305,-1.80096 -0.0215,-0.58063 -0.0396,-1.0961 -0.0611,-1.52622 -0.0215,-0.4301 -0.0395,-0.71663 -0.061,-0.82417 l 0.18315,0 c 0.55912,1.16127 1.24044,2.16521 2.01464,2.96089 0.79566,0.77419 1.63935,1.39794 2.56407,1.89254 0.92469,0.47311 1.8891,0.82279 2.89985,1.03783 1.03222,0.21504 2.08124,0.30524 3.11352,0.30525 2.301,0 4.27489,-0.43986 5.95231,-1.34308 1.69886,-0.92471 3.11562,-2.20271 4.21241,-3.8156 1.09672,-1.61286 1.89529,-3.53262 2.41145,-5.76915 0.53759,-2.23651 0.79361,-4.68081 0.79365,-7.32594 -4e-5,-2.62358 -0.24704,-5.0103 -0.76313,-7.20383 -0.49465,-2.21498 -1.26614,-4.14724 -2.31987,-5.73864 -1.03226,-1.59134 -2.35537,-2.82079 -3.96821,-3.72401 -1.61289,-0.90318 -3.52366,-1.37357 -5.73864,-1.37361 z m -124.51028,0.0916 c -2.38706,4e-5 -4.49971,0.23801 -6.34914,0.7326 -1.82793,0.47315 -3.36194,1.18151 -4.60923,2.10621 -1.24729,0.90324 -2.19365,1.98488 -2.83879,3.29666 -0.64516,1.29032 -0.97679,2.77023 -0.97679,4.42608 0,1.82794 0.34968,3.34394 1.03784,4.54818 0.68814,1.18279 1.59843,2.15621 2.71669,2.93037 1.11825,0.7742 2.39625,1.41043 3.8156,1.86201 1.41929,0.45162 2.84163,0.83738 4.30398,1.15994 1.39781,0.32259 2.71187,0.59665 3.93768,0.8547 1.24727,0.23655 2.3324,0.54113 3.23562,0.88521 0.9247,0.32259 1.65112,0.74441 2.16726,1.28203 0.5376,0.51613 0.79362,1.23354 0.79364,2.13674 -2e-5,0.79568 -0.18389,1.44649 -0.54944,1.98411 -0.36562,0.51612 -0.85962,0.91991 -1.52625,1.22097 -0.64516,0.27958 -1.44721,0.51201 -2.35039,0.64103 -0.88172,0.10752 -1.8371,0.15262 -2.86933,0.15262 -1.13978,0 -2.14928,-0.0451 -3.05247,-0.15262 -0.88172,-0.10752 -1.65324,-0.34897 -2.31987,-0.67154 -0.66667,-0.32256 -1.22727,-0.77147 -1.67886,-1.37361 -0.45163,-0.60212 -0.81032,-1.38268 -1.06836,-2.35041 l -7.96695,1.19046 c 0.45161,1.74191 1.14194,3.21279 2.04516,4.39556 0.90319,1.18278 2.02439,2.14716 3.35771,2.89984 1.35479,0.73117 2.91586,1.26471 4.7008,1.58729 1.7849,0.32258 3.76782,0.45786 5.98284,0.45787 2.47305,0 4.68842,-0.238 6.62387,-0.73258 1.93542,-0.51613 3.58113,-1.24255 4.91447,-2.16726 1.33328,-0.94621 2.33378,-2.08546 3.02195,-3.41877 0.70963,-1.3333 1.06833,-2.84028 1.06837,-4.51766 -3e-5,-1.95693 -0.37676,-3.55411 -1.12942,-4.82291 -0.7312,-1.26877 -1.70462,-2.3178 -2.93037,-3.11351 -1.2043,-0.81717 -2.61205,-1.44091 -4.18189,-1.89253 -1.54838,-0.47309 -3.11848,-0.87689 -4.73133,-1.22099 -1.31181,-0.32255 -2.51418,-0.6091 -3.63243,-0.82417 -1.09677,-0.23654 -2.05216,-0.49256 -2.86932,-0.79364 -0.7957,-0.32255 -1.44096,-0.71733 -1.89254,-1.19046 -0.43011,-0.47308 -0.64103,-1.09682 -0.64102,-1.89253 -1e-5,-1.29027 0.54257,-2.20958 1.61781,-2.74722 1.07525,-0.5591 2.6724,-0.85466 4.8229,-0.8547 0.90319,3e-5 1.75035,0.0847 2.50303,0.21367 0.75266,0.10756 1.39442,0.31847 1.95358,0.64103 0.58062,0.3226 1.07806,0.75346 1.46519,1.31256 0.38705,0.53766 0.64308,1.23701 0.79363,2.07567 l 8.02801,-0.85469 c -0.34411,-1.67735 -0.94981,-3.09066 -1.83149,-4.27345 -0.86023,-1.18274 -1.91482,-2.14714 -3.20508,-2.89985 -1.29033,-0.77415 -2.7612,-1.33474 -4.39556,-1.67886 -1.63441,-0.36555 -3.41888,-0.54942 -5.31131,-0.54945 z m -31.74569,0.0305 c -2.19352,4e-5 -4.27911,0.29214 -6.25757,0.91574 -1.97845,0.62367 -3.72341,1.66369 -5.25024,3.083 -1.50535,1.39784 -2.72923,3.21495 -3.63245,5.49444 -0.8817,2.27955 -1.31256,5.0916 -1.31256,8.42482 0,3.07523 0.37673,5.75752 1.12941,8.05852 0.75267,2.27954 1.84683,4.18127 3.26615,5.70812 1.41933,1.50535 3.12817,2.63558 5.12815,3.38825 2.02147,0.73117 4.29091,1.09887 6.80701,1.09888 2.47306,0 4.56768,-0.28308 6.28809,-0.88521 1.74187,-0.62365 3.20373,-1.39517 4.36503,-2.31988 1.16124,-0.94621 2.05904,-1.99527 2.74722,-3.11352 0.70964,-1.11824 1.26122,-2.15479 1.64834,-3.14405 l -8.54692,-0.76311 c -0.43012,1.41933 -1.15654,2.4864 -2.16724,3.17457 -1.01076,0.66666 -2.28529,1.00731 -3.87665,1.00731 -1.31181,1e-5 -2.43301,-0.27752 -3.35772,-0.79364 -0.92473,-0.53762 -1.6782,-1.23351 -2.25882,-2.13673 -0.58065,-0.92471 -0.99347,-2.01884 -1.25151,-3.26615 -0.25807,-1.26877 -0.39684,-2.62796 -0.39683,-4.0903 l 22.37461,0 0,-0.27473 c -3e-5,-2.90315 -0.2741,-5.54935 -0.85468,-7.93641 -0.58069,-2.40852 -1.49998,-4.47609 -2.74724,-6.19652 -1.24732,-1.72037 -2.86597,-3.05249 -4.82289,-3.99874 -1.93548,-0.96769 -4.26808,-1.43463 -7.02069,-1.43466 z m 115.71916,0 c -2.96771,4e-5 -5.56881,0.4399 -7.7838,1.34308 -2.21502,0.90325 -4.03212,2.17222 -5.49446,3.78507 -1.46233,1.6129 -2.56548,3.52366 -3.29666,5.73864 -0.70967,2.19353 -1.06835,4.57123 -1.06837,7.17331 0,2.68814 0.37673,5.15048 1.12942,7.38698 0.75267,2.21501 1.86485,4.14726 3.3272,5.73864 1.48382,1.59136 3.29192,2.8118 5.46392,3.69349 2.17199,0.88172 4.70093,1.31255 7.5396,1.31256 2.94616,0 5.5077,-0.43084 7.72275,-1.31256 2.21498,-0.90319 4.07162,-2.16315 5.5555,-3.75453 1.4838,-1.61288 2.59598,-3.52364 3.32719,-5.73865 0.75264,-2.215 1.12937,-4.6593 1.12941,-7.32593 -4e-5,-2.62358 -0.34069,-5.01032 -1.00731,-7.20383 -0.64519,-2.21499 -1.66371,-4.11674 -3.08299,-5.70812 -1.39786,-1.61284 -3.21844,-2.88182 -5.43341,-3.78507 -2.21503,-0.90318 -4.88829,-1.34305 -8.02799,-1.34308 z m -115.84126,5.70811 c 1.99994,4e-5 3.57907,0.6869 4.76185,2.10621 1.18277,1.39786 1.87311,3.53201 2.04516,6.34914 l -13.55297,0 c 0.043,-1.50532 0.2449,-2.80135 0.61049,-3.87664 0.36558,-1.07521 0.85402,-1.95844 1.43466,-2.62512 0.60214,-0.68812 1.27998,-1.16408 2.07569,-1.46519 0.81718,-0.32255 1.70038,-0.48836 2.62512,-0.4884 z m 152.53195,0.4884 c 2.38703,3e-5 4.19855,0.96444 5.40287,2.89985 1.20424,1.91398 1.80094,4.84327 1.80096,8.82164 -2e-5,2.1075 -0.16585,3.93709 -0.48839,5.46393 -0.32261,1.52687 -0.81106,2.76532 -1.43466,3.75453 -0.60218,0.96774 -1.35565,1.69417 -2.25883,2.16726 -0.90323,0.45161 -1.92175,0.67154 -3.083,0.67154 -0.90322,0 -1.80448,-0.18385 -2.68617,-0.54944 -0.88172,-0.38708 -1.67128,-1.01984 -2.38092,-1.92306 -0.68818,-0.90321 -1.24878,-2.09656 -1.67886,-3.60192 -0.43011,-1.52684 -0.64103,-3.42859 -0.64103,-5.70812 0,-2.34402 0.21092,-4.30333 0.64103,-5.83022 0.45158,-1.54833 1.0212,-2.75973 1.70937,-3.66297 0.70966,-0.92468 1.49921,-1.55742 2.38093,-1.92304 0.90319,-0.38707 1.81348,-0.57995 2.7167,-0.57998 z m -36.56859,0.0305 c 2.58057,3e-5 4.56694,0.93738 5.92179,2.80827 1.35477,1.87096 2.01459,4.85436 2.01463,9.00479 -4e-5,2.08599 -0.18391,3.89755 -0.54944,5.40288 -0.36562,1.50535 -0.90817,2.72577 -1.61781,3.69348 -0.7097,0.96774 -1.57142,1.69417 -2.62512,2.16726 -1.03227,0.45161 -2.23813,0.67154 -3.5714,0.67154 -1.16129,0 -2.20686,-0.21992 -3.17457,-0.67154 -0.96774,-0.4731 -1.81487,-1.19952 -2.50302,-2.16726 -0.68817,-0.96771 -1.20021,-2.18812 -1.58729,-3.69348 -0.36561,-1.50534 -0.54946,-3.31689 -0.54945,-5.40288 0,-4.10742 0.68687,-7.0818 2.10621,-8.97427 1.4193,-1.8924 3.46885,-2.83875 6.13547,-2.83879 z"
               style="font-size:67.63295746px;font-style:normal;font-variant:normal;font-weight:bold;font-stretch:normal;text-align:start;line-height:125%;writing-mode:lr-tb;text-anchor:start;fill:#2e3436;fill-opacity:1;stroke:none;font-family:Liberation Sans;-inkscape-font-specification:Liberation Sans Bold" />
            <path
               id="text3849"
               d="m 226.32123,339.65531 c -2e-5,1.17372 -0.24454,2.22706 -0.73357,3.16001 -0.48906,0.93295 -1.20007,1.72672 -2.133,2.38129 -0.93298,0.65458 -2.07661,1.15867 -3.43086,1.5123 -1.35431,0.35361 -2.89669,0.53043 -4.62717,0.53043 -1.54991,0 -2.94935,-0.11287 -4.19829,-0.33859 -1.24896,-0.22571 -2.34368,-0.59813 -3.28416,-1.11728 -0.94048,-0.51914 -1.72673,-1.19252 -2.35871,-2.02015 -0.63201,-0.82762 -1.10602,-1.85086 -1.422,-3.06972 l 5.57515,-0.83515 c 0.18056,0.67716 0.42885,1.2264 0.74485,1.64773 0.316,0.42133 0.70724,0.74485 1.17373,0.97056 0.46646,0.22573 1.01194,0.3762 1.63644,0.45144 0.62446,0.0752 1.33546,0.11285 2.13299,0.11285 0.72228,0 1.39566,-0.0414 2.02015,-0.12414 0.62446,-0.0828 1.16618,-0.22571 1.62515,-0.42885 0.45894,-0.20314 0.81632,-0.48905 1.07215,-0.85772 0.25579,-0.36866 0.3837,-0.83138 0.38371,-1.38815 -1e-5,-0.632 -0.18435,-1.13232 -0.553,-1.50101 -0.36868,-0.36866 -0.87278,-0.66961 -1.5123,-0.90286 -0.63953,-0.23322 -1.39191,-0.43636 -2.25714,-0.60943 -0.86525,-0.17304 -1.78693,-0.37242 -2.765,-0.59814 -1.02325,-0.22571 -2.03145,-0.49656 -3.02458,-0.81257 -0.99316,-0.31599 -1.88098,-0.74486 -2.66344,-1.28658 -0.78249,-0.5417 -1.41448,-1.23013 -1.89601,-2.06529 -0.48153,-0.83512 -0.72229,-1.89223 -0.72229,-3.1713 0,-1.15865 0.22571,-2.19317 0.67715,-3.10358 0.45142,-0.91037 1.11353,-1.68531 1.98628,-2.32486 0.87277,-0.63949 1.95243,-1.12855 3.23902,-1.46715 1.28657,-0.33854 2.765,-0.50783 4.4353,-0.50785 1.32418,2e-5 2.55808,0.12417 3.70173,0.37242 1.1436,0.24832 2.16684,0.63955 3.06971,1.17372 0.90283,0.53422 1.659,1.21513 2.26844,2.04272 0.60942,0.82765 1.0345,1.82832 1.2753,3.00201 l -5.62032,0.58686 c -0.10535,-0.58685 -0.29344,-1.07212 -0.56428,-1.45587 -0.27088,-0.38369 -0.60568,-0.6884 -1.00443,-0.91414 -0.39878,-0.22569 -0.86149,-0.37993 -1.38815,-0.46272 -0.52668,-0.0827 -1.10602,-0.12412 -1.738,-0.12414 -1.50478,2e-5 -2.63335,0.19188 -3.38573,0.57557 -0.75239,0.38374 -1.12857,1.02703 -1.12857,1.92988 0,0.55677 0.15423,1.00068 0.46272,1.33171 0.30846,0.33106 0.74484,0.60568 1.30915,0.82386 0.56426,0.2182 1.23389,0.4063 2.00886,0.56429 0.77493,0.15801 1.62137,0.34987 2.53929,0.57557 1.12856,0.24078 2.23832,0.52291 3.32929,0.84643 1.09093,0.32354 2.06151,0.76744 2.91172,1.33172 0.85018,0.56429 1.53484,1.29035 2.054,2.17814 0.51913,0.88783 0.7787,2.0164 0.77872,3.38573 l 0,0 z m 8.36018,-17.28977 0,13.7009 c -1e-5,0.94801 0.0752,1.81701 0.22571,2.60702 0.15047,0.79 0.39876,1.46714 0.74487,2.03143 0.34609,0.56429 0.79375,1.00443 1.343,1.32043 0.54923,0.316 1.2226,0.474 2.02014,0.47399 0.76743,1e-5 1.46337,-0.16928 2.08787,-0.50784 0.62446,-0.33858 1.16241,-0.8201 1.61386,-1.44459 0.45141,-0.62446 0.80128,-1.36933 1.04958,-2.23457 0.24826,-0.86523 0.37241,-1.81701 0.37242,-2.8553 l 0,-13.09147 6.34259,0 0,18.96005 c -3e-5,0.51163 0.004,1.04958 0.0113,1.61387 0.008,0.5643 0.0226,1.09848 0.0452,1.60258 0.0225,0.5041 0.0451,0.95552 0.0677,1.3543 0.0225,0.39876 0.0414,0.69594 0.0564,0.89156 l -6.04915,0 c -0.0151,-0.18058 -0.0414,-0.47024 -0.079,-0.86901 -0.0376,-0.39875 -0.0677,-0.83889 -0.0903,-1.32042 -0.0226,-0.48152 -0.0452,-0.96305 -0.0677,-1.44458 -0.0226,-0.48151 -0.0339,-0.88781 -0.0339,-1.21886 l -0.11286,0 c -0.84268,1.85087 -1.91483,3.19762 -3.21644,4.0403 -1.30163,0.84267 -2.84779,1.26401 -4.63844,1.26401 -1.45964,0 -2.70107,-0.24078 -3.72429,-0.7223 -1.02325,-0.48152 -1.85463,-1.13986 -2.49416,-1.975 -0.63953,-0.83514 -1.10224,-1.82453 -1.38814,-2.96816 -0.28591,-1.14361 -0.42887,-2.37752 -0.42886,-3.70172 l 0,-15.50662 6.34259,0 z m 33.88853,24.42236 0,-13.70089 c -10e-6,-0.948 -0.064,-1.81699 -0.19186,-2.60701 -0.12791,-0.78998 -0.33859,-1.46714 -0.632,-2.03143 -0.29345,-0.56428 -0.67716,-1.00442 -1.15115,-1.32045 -0.47402,-0.31597 -1.04958,-0.47397 -1.72672,-0.47399 -0.64705,2e-5 -1.23391,0.16931 -1.76057,0.50786 -0.52669,0.33859 -0.98187,0.82012 -1.36558,1.44457 -0.38371,0.6245 -0.68091,1.36936 -0.89157,2.23459 -0.21068,0.86524 -0.316,1.81702 -0.316,2.85529 l 0,13.09146 -6.34259,0 0,-18.96006 c 0,-0.52664 -0.004,-1.06836 -0.0113,-1.62514 -0.008,-0.55675 -0.0226,-1.08717 -0.0452,-1.5913 -0.0226,-0.50407 -0.0414,-0.9555 -0.0564,-1.35428 -0.0151,-0.39874 -0.0376,-0.69593 -0.0677,-0.89158 l 6.04915,0 c 0.0301,0.18061 0.0602,0.47027 0.0903,0.86901 0.0301,0.39879 0.0602,0.83893 0.0903,1.32043 0.0301,0.48154 0.0564,0.96307 0.079,1.44457 0.0226,0.48156 0.0338,0.88784 0.0338,1.21886 l 0.0903,0 c 0.78247,-1.86587 1.75681,-3.22017 2.92302,-4.06286 1.16617,-0.84265 2.56185,-1.26398 4.187,-1.264 1.86589,2e-5 3.3669,0.45521 4.50301,1.36557 1.13608,0.91041 1.89975,2.23084 2.29102,3.96129 l 0.13542,0 c 0.43635,-1.00816 0.9066,-1.85084 1.41072,-2.528 0.50407,-0.67711 1.06083,-1.2226 1.6703,-1.63643 0.60939,-0.4138 1.27149,-0.71098 1.98629,-0.89158 0.71472,-0.18053 1.49344,-0.27083 2.33613,-0.27085 1.33923,2e-5 2.47156,0.24079 3.39702,0.72229 0.9254,0.48154 1.67777,1.14364 2.25715,1.98629 0.57929,0.84268 1.00063,1.83583 1.264,2.97943 0.2633,1.14364 0.39497,2.37755 0.39501,3.70173 l 0,15.50661 -6.29745,0 0,-13.70089 c -4e-5,-0.948 -0.064,-1.81699 -0.19186,-2.60701 -0.12794,-0.78998 -0.3386,-1.46714 -0.63201,-2.03143 -0.29345,-0.56428 -0.67716,-1.00442 -1.15114,-1.32045 -0.47403,-0.31597 -1.04961,-0.47397 -1.72671,-0.47399 -0.63203,2e-5 -1.20761,0.16178 -1.72672,0.48529 -0.51918,0.32355 -0.97061,0.7825 -1.3543,1.37685 -0.38374,0.59441 -0.68092,1.30541 -0.89157,2.13302 -0.2107,0.82763 -0.33107,1.74554 -0.36114,2.75372 l 0,13.38489 -6.29745,0 z m 38.31254,0 0,-13.70089 c -2e-5,-0.948 -0.064,-1.81699 -0.19185,-2.60701 -0.12793,-0.78998 -0.3386,-1.46714 -0.63202,-2.03143 -0.29344,-0.56428 -0.67716,-1.00442 -1.15114,-1.32045 -0.47401,-0.31597 -1.04958,-0.47397 -1.72671,-0.47399 -0.64706,2e-5 -1.23392,0.16931 -1.76057,0.50786 -0.52669,0.33859 -0.98188,0.82012 -1.3656,1.44457 -0.38371,0.6245 -0.68091,1.36936 -0.89156,2.23459 -0.21068,0.86524 -0.31601,1.81702 -0.316,2.85529 l 0,13.09146 -6.34259,0 0,-18.96006 c 0,-0.52664 -0.004,-1.06836 -0.0113,-1.62514 -0.008,-0.55675 -0.0226,-1.08717 -0.0451,-1.5913 -0.0226,-0.50407 -0.0414,-0.9555 -0.0564,-1.35428 -0.015,-0.39874 -0.0376,-0.69593 -0.0677,-0.89158 l 6.04916,0 c 0.0301,0.18061 0.0602,0.47027 0.0903,0.86901 0.0301,0.39879 0.0602,0.83893 0.0903,1.32043 0.0301,0.48154 0.0564,0.96307 0.079,1.44457 0.0226,0.48156 0.0339,0.88784 0.0339,1.21886 l 0.0903,0 c 0.78246,-1.86587 1.75679,-3.22017 2.923,-4.06286 1.16619,-0.84265 2.56185,-1.26398 4.18702,-1.264 1.86589,2e-5 3.36689,0.45521 4.503,1.36557 1.13608,0.91041 1.89976,2.23084 2.29101,3.96129 l 0.13542,0 c 0.43637,-1.00816 0.90661,-1.85084 1.41072,-2.528 0.50408,-0.67711 1.06084,-1.2226 1.6703,-1.63643 0.6094,-0.4138 1.2715,-0.71098 1.98629,-0.89158 0.71474,-0.18053 1.49344,-0.27083 2.33615,-0.27085 1.33921,2e-5 2.47154,0.24079 3.39701,0.72229 0.9254,0.48154 1.67778,1.14364 2.25714,1.98629 0.57931,0.84268 1.00065,1.83583 1.26401,2.97943 0.2633,1.14364 0.39496,2.37755 0.395,3.70173 l 0,15.50661 -6.29745,0 0,-13.70089 c -2e-5,-0.948 -0.064,-1.81699 -0.19186,-2.60701 -0.12794,-0.78998 -0.33859,-1.46714 -0.63199,-2.03143 -0.29346,-0.56428 -0.67718,-1.00442 -1.15116,-1.32045 -0.47401,-0.31597 -1.04959,-0.47397 -1.7267,-0.47399 -0.63204,2e-5 -1.20761,0.16178 -1.72673,0.48529 -0.51917,0.32355 -0.97059,0.7825 -1.35428,1.37685 -0.38375,0.59441 -0.68094,1.30541 -0.89158,2.13302 -0.21069,0.82763 -0.33107,1.74554 -0.36113,2.75372 l 0,13.38489 -6.29746,0 z m 23.9345,-28.8238 0,-4.67229 6.34258,0 0,4.67229 -6.34258,0 z m 0,28.8238 0,-24.42236 6.34258,0 0,24.42236 -6.34258,0 z m 16.30535,0.40629 c -1.86593,0 -3.30297,-0.50786 -4.31116,-1.52358 -1.00821,-1.01571 -1.51229,-2.55433 -1.51229,-4.61587 l 0,-14.40061 -3.0923,0 0,-4.28859 3.4083,0 1.98629,-5.73315 3.97258,0 0,5.73315 4.62717,0 0,4.28859 -4.62717,0 0,12.68518 c -1e-5,1.18878 0.22571,2.0653 0.67715,2.62957 0.45141,0.5643 1.15114,0.84644 2.09915,0.84644 0.39123,0 0.74484,-0.0301 1.06085,-0.0903 0.316,-0.0602 0.66961,-0.13543 1.06087,-0.22573 l 0,3.92745 c -0.7825,0.25581 -1.61011,0.44766 -2.48287,0.57557 -0.87277,0.1279 -1.82829,0.19186 -2.86657,0.19186 l 0,0 z"
               style="font-size:47.32479858px;font-style:normal;font-variant:normal;font-weight:bold;font-stretch:normal;text-align:start;line-height:125%;writing-mode:lr-tb;text-anchor:start;fill:#2e3436;fill-opacity:1;stroke:none;font-family:Liberation Sans;-inkscape-font-specification:Liberation Sans Bold" />
            <path
               id="text3853"
               d="m 213.14889,257.72948 c 0.53276,0 1.04471,-0.0416 1.53587,-0.12488 0.49113,-0.0832 0.9469,-0.19354 1.3673,-0.3309 0.42039,-0.13734 0.79916,-0.29551 1.13631,-0.47449 0.33713,-0.17898 0.61392,-0.36419 0.83037,-0.55567 l 0,-2.43493 -4.29546,0 0,-2.72211 7.6669,0 0,6.46816 c -0.39959,0.4079 -0.88243,0.79708 -1.44847,1.16752 -0.56608,0.37044 -1.20292,0.69509 -1.91048,0.97397 -0.70761,0.27887 -1.4797,0.50155 -2.3163,0.66804 -0.83663,0.16649 -1.72527,0.24975 -2.66593,0.24975 -1.5567,0 -2.89695,-0.22686 -4.02076,-0.68054 -1.12382,-0.45369 -2.04783,-1.08636 -2.77207,-1.89801 -0.72423,-0.81162 -1.25908,-1.77519 -1.60455,-2.89069 -0.34547,-1.11547 -0.51821,-2.33501 -0.51821,-3.65863 0,-1.37354 0.18314,-2.61389 0.54944,-3.72106 0.36627,-1.10716 0.92193,-2.04991 1.66697,-2.82827 0.74506,-0.77832 1.68156,-1.37769 2.80954,-1.79809 1.12796,-0.42037 2.45364,-0.63057 3.97703,-0.63058 1.10716,1e-5 2.09153,0.10824 2.95314,0.32465 0.86158,0.21646 1.61494,0.52447 2.26012,0.92403 0.64513,0.39959 1.18622,0.88033 1.62327,1.44222 0.43704,0.56192 0.78457,1.1925 1.04265,1.89175 l -3.39641,1.02392 c -0.14986,-0.36627 -0.34964,-0.71381 -0.59936,-1.04266 -0.24975,-0.3288 -0.55984,-0.61599 -0.93027,-0.86157 -0.37045,-0.24556 -0.79917,-0.4412 -1.28614,-0.58689 -0.487,-0.14567 -1.04266,-0.2185 -1.667,-0.21852 -0.91569,2e-5 -1.70652,0.14361 -2.37248,0.4308 -0.66597,0.28721 -1.21539,0.69719 -1.64826,1.22994 -0.43288,0.53279 -0.75338,1.1717 -0.96148,1.91674 -0.20812,0.74505 -0.31217,1.57958 -0.31217,2.50359 0,0.91571 0.10613,1.75649 0.31841,2.52234 0.21227,0.76586 0.53694,1.42349 0.97397,1.97292 0.43703,0.54942 0.98853,0.97814 1.6545,1.28613 0.66596,0.30801 1.45263,0.46202 2.36001,0.46202 l 0,0 z m 10.56452,2.63471 0,-10.33907 c 0,-0.29135 -0.002,-0.59936 -0.006,-0.92403 -0.004,-0.32464 -0.0125,-0.63473 -0.025,-0.93027 -0.0125,-0.29551 -0.0229,-0.56189 -0.0312,-0.79915 -0.008,-0.23724 -0.0208,-0.40997 -0.0375,-0.51819 l 3.34646,0 c 0.0166,0.0999 0.0333,0.27263 0.0499,0.51819 0.0166,0.24559 0.0333,0.51406 0.05,0.8054 0.0166,0.29137 0.0312,0.58066 0.0437,0.86783 0.0125,0.28722 0.0187,0.51822 0.0187,0.69302 l 0.0499,0 c 0.17481,-0.49113 0.34963,-0.93026 0.52444,-1.31736 0.17481,-0.38707 0.38084,-0.7159 0.6181,-0.98645 0.23725,-0.27053 0.52237,-0.47865 0.85535,-0.62434 0.33296,-0.14567 0.74504,-0.21851 1.23618,-0.21853 0.20811,2e-5 0.41414,0.0188 0.61812,0.0562 0.20393,0.0375 0.36001,0.0812 0.46824,0.13111 l 0,2.9344 c -0.22477,-0.0499 -0.45161,-0.0936 -0.68052,-0.13111 -0.22894,-0.0375 -0.50157,-0.0562 -0.81789,-0.0562 -0.87409,1e-5 -1.55461,0.35381 -2.04159,1.06139 -0.487,0.70758 -0.73049,1.75649 -0.73049,3.14668 l 0,6.63048 -3.50879,0 z m 12.02549,0.24975 c -0.64932,0 -1.22996,-0.0895 -1.74191,-0.26848 -0.51197,-0.17897 -0.94692,-0.4412 -1.30488,-0.78667 -0.35795,-0.34546 -0.63265,-0.77209 -0.82412,-1.27989 -0.19146,-0.50781 -0.2872,-1.08636 -0.2872,-1.73567 0,-0.79915 0.13944,-1.47135 0.41832,-2.01663 0.27886,-0.54524 0.65971,-0.98645 1.14253,-1.32359 0.48282,-0.33714 1.04889,-0.58271 1.69821,-0.73673 0.6493,-0.15399 1.34024,-0.23515 2.07281,-0.24348 l 2.90942,-0.0499 0,-0.68678 c 0,-0.49113 -0.0437,-0.90111 -0.13111,-1.22995 -0.0874,-0.32881 -0.21436,-0.59727 -0.38085,-0.80539 -0.1665,-0.2081 -0.37252,-0.35586 -0.61809,-0.44328 -0.24558,-0.0874 -0.52654,-0.13111 -0.84286,-0.13112 -0.29137,10e-6 -0.55151,0.0291 -0.78042,0.0874 -0.22894,0.0583 -0.42664,0.16026 -0.59313,0.30592 -0.16649,0.1457 -0.30177,0.34132 -0.40582,0.58688 -0.10405,0.24558 -0.1769,0.55568 -0.21852,0.93027 l -3.65864,-0.17481 c 0.0999,-0.59103 0.28303,-1.13004 0.54943,-1.61704 0.26638,-0.48698 0.63474,-0.90945 1.10508,-1.26741 0.47033,-0.35795 1.04889,-0.63473 1.73566,-0.83038 0.68677,-0.19561 1.49218,-0.29342 2.41619,-0.29343 0.84077,1e-5 1.58999,0.10407 2.24764,0.31216 0.65763,0.20813 1.21536,0.51822 1.67323,0.93027 0.45784,0.41207 0.80746,0.9178 1.04889,1.51714 0.24139,0.59939 0.3621,1.29449 0.36212,2.08531 l 0,4.9198 c -2e-5,0.31633 0.0145,0.59937 0.0437,0.84909 0.0291,0.24975 0.0832,0.45995 0.16233,0.63058 0.0791,0.17067 0.19145,0.29969 0.33716,0.3871 0.14566,0.0874 0.33504,0.13111 0.56814,0.13111 0.26637,0 0.52443,-0.025 0.77417,-0.0749 l 0,1.898 c -0.20811,0.0499 -0.39542,0.0957 -0.56189,0.13735 -0.1665,0.0416 -0.333,0.0749 -0.49948,0.0999 -0.1665,0.025 -0.34339,0.0458 -0.53068,0.0624 -0.18732,0.0167 -0.40584,0.025 -0.65556,0.025 -0.88242,0 -1.53381,-0.21644 -1.95418,-0.64931 -0.4204,-0.43287 -0.67223,-1.0697 -0.75546,-1.91048 l -0.0749,0 c -0.46619,0.84078 -1.06347,1.49426 -1.79186,1.96042 -0.7284,0.46617 -1.61289,0.69928 -2.65344,0.69928 l 0,0 z m 4.08318,-6.50564 -1.79809,0.025 c -0.37461,0.0167 -0.73049,0.0479 -1.06763,0.0937 -0.33714,0.0458 -0.63267,0.14152 -0.88656,0.2872 -0.25391,0.14567 -0.45577,0.35587 -0.60562,0.63057 -0.14984,0.27472 -0.22476,0.64933 -0.22475,1.12383 -1e-5,0.64098 0.14775,1.11756 0.44328,1.42973 0.29552,0.31218 0.68884,0.46825 1.18,0.46825 0.44952,0 0.85743,-0.0957 1.22371,-0.28719 0.36628,-0.19146 0.67637,-0.44329 0.93026,-0.75546 0.2539,-0.31217 0.4516,-0.6722 0.59313,-1.0801 0.14151,-0.4079 0.21227,-0.82412 0.21227,-1.24868 l 0,-0.68678 z m 14.74762,6.25589 0,-7.5795 c -3e-5,-0.52443 -0.0417,-1.00516 -0.12488,-1.44222 -0.0833,-0.43702 -0.22061,-0.81162 -0.41207,-1.12381 -0.19147,-0.31216 -0.44121,-0.55565 -0.7492,-0.73047 -0.30801,-0.17482 -0.68262,-0.26221 -1.12381,-0.26222 -0.42456,1e-5 -0.80956,0.0936 -1.15503,0.28094 -0.34549,0.18733 -0.64308,0.45371 -0.8928,0.79916 -0.24975,0.34548 -0.4433,0.75755 -0.58064,1.2362 -0.13736,0.47867 -0.20604,1.00519 -0.20603,1.57958 l 0,7.24234 -3.5088,0 0,-10.48891 c 0,-0.29135 -0.002,-0.59104 -0.006,-0.89906 -0.004,-0.30799 -0.0125,-0.60143 -0.025,-0.88032 -0.0125,-0.27885 -0.0229,-0.52858 -0.0312,-0.7492 -0.008,-0.22059 -0.0208,-0.385 -0.0375,-0.49322 l 3.34647,0 c 0.0166,0.0999 0.0333,0.26015 0.0499,0.48074 0.0167,0.2206 0.0333,0.4641 0.0499,0.73047 0.0166,0.26639 0.0312,0.53279 0.0437,0.79916 0.0125,0.26639 0.0187,0.49115 0.0187,0.67428 l 0.05,0 c 0.47448,-1.03223 1.06968,-1.78143 1.78561,-2.24762 0.71589,-0.46617 1.56916,-0.69925 2.5598,-0.69927 0.81579,2e-5 1.50465,0.13321 2.06656,0.39958 0.56188,0.26641 1.01973,0.63268 1.37355,1.09884 0.35377,0.46619 0.60976,1.01561 0.76794,1.64826 0.15815,0.63268 0.23722,1.3153 0.23724,2.04784 l 0,8.57843 -3.49629,0 z m 20.04269,-2.64721 c 0.69093,1e-5 1.28822,-0.0978 1.79186,-0.29343 0.50362,-0.19562 0.94065,-0.4516 1.31111,-0.76793 0.37043,-0.31635 0.67843,-0.67429 0.92402,-1.07387 0.24556,-0.39958 0.44744,-0.80332 0.60562,-1.21122 l 3.2091,1.21122 c -0.25807,0.63266 -0.59522,1.25284 -1.01143,1.86053 -0.41624,0.60769 -0.93653,1.14463 -1.56084,1.6108 -0.62436,0.46616 -1.36733,0.84287 -2.22891,1.13005 -0.86159,0.28721 -1.87511,0.43081 -3.04053,0.43081 -1.5234,0 -2.84285,-0.22686 -3.95832,-0.68054 -1.11549,-0.45369 -2.03743,-1.08636 -2.76583,-1.89801 -0.72839,-0.81162 -1.26949,-1.77519 -1.62327,-2.89069 -0.3538,-1.11547 -0.5307,-2.33501 -0.5307,-3.65863 0,-1.37354 0.1769,-2.61389 0.5307,-3.72106 0.35378,-1.10716 0.88864,-2.04991 1.60455,-2.82827 0.71591,-0.77832 1.62119,-1.37769 2.71587,-1.79809 1.09468,-0.42037 2.3829,-0.63057 3.86467,-0.63058 1.14877,1e-5 2.15396,0.12072 3.01556,0.36211 0.86158,0.24143 1.60662,0.58065 2.23514,1.01767 0.62849,0.43706 1.14876,0.95317 1.56085,1.54837 0.41205,0.59521 0.73463,1.25078 0.96773,1.96668 l -3.24657,0.88656 c -0.11655,-0.3746 -0.29553,-0.73464 -0.53694,-1.08012 -0.24142,-0.34545 -0.54734,-0.65138 -0.91777,-0.91777 -0.37046,-0.26638 -0.80541,-0.48073 -1.30488,-0.64307 -0.49948,-0.16231 -1.06555,-0.24348 -1.6982,-0.2435 -0.89073,2e-5 -1.65659,0.14361 -2.29757,0.4308 -0.641,0.28721 -1.16752,0.69719 -1.57958,1.22994 -0.41206,0.53279 -0.71592,1.1717 -0.91154,1.91674 -0.19562,0.74505 -0.29345,1.57958 -0.29343,2.50359 -2e-5,0.91571 0.0978,1.75441 0.29343,2.5161 0.19562,0.7617 0.50156,1.41725 0.91778,1.96666 0.41622,0.54943 0.95108,0.97814 1.60455,1.28615 0.65348,0.30801 1.43806,0.46201 2.35377,0.462 l 0,0 z m 12.42506,2.89696 c -0.64932,0 -1.22995,-0.0895 -1.74191,-0.26848 -0.51196,-0.17897 -0.94693,-0.4412 -1.30487,-0.78667 -0.35797,-0.34546 -0.63267,-0.77209 -0.82414,-1.27989 -0.19146,-0.50781 -0.28719,-1.08636 -0.28719,-1.73567 0,-0.79915 0.13944,-1.47135 0.41831,-2.01663 0.27887,-0.54524 0.65971,-0.98645 1.14255,-1.32359 0.4828,-0.33714 1.04888,-0.58271 1.69821,-0.73673 0.6493,-0.15399 1.34024,-0.23515 2.0728,-0.24348 l 2.90942,-0.0499 0,-0.68678 c -1e-5,-0.49113 -0.0437,-0.90111 -0.1311,-1.22995 -0.0874,-0.32881 -0.21438,-0.59727 -0.38085,-0.80539 -0.16651,-0.2081 -0.37253,-0.35586 -0.6181,-0.44328 -0.24559,-0.0874 -0.52653,-0.13111 -0.84287,-0.13112 -0.29136,10e-6 -0.5515,0.0291 -0.78042,0.0874 -0.22893,0.0583 -0.42663,0.16026 -0.59312,0.30592 -0.1665,0.1457 -0.30178,0.34132 -0.40582,0.58688 -0.10406,0.24558 -0.17691,0.55568 -0.21852,0.93027 L 283.4912,250.612 c 0.0999,-0.59103 0.28302,-1.13004 0.54942,-1.61704 0.26638,-0.48698 0.63473,-0.90945 1.10508,-1.26741 0.47034,-0.35795 1.04889,-0.63473 1.73565,-0.83038 0.68678,-0.19561 1.49218,-0.29342 2.41621,-0.29343 0.84077,1e-5 1.58998,0.10407 2.24762,0.31216 0.65763,0.20813 1.21537,0.51822 1.67324,0.93027 0.45784,0.41207 0.80746,0.9178 1.04889,1.51714 0.2414,0.59939 0.36209,1.29449 0.36212,2.08531 l 0,4.9198 c -3e-5,0.31633 0.0145,0.59937 0.0437,0.84909 0.0291,0.24975 0.0832,0.45995 0.16233,0.63058 0.0791,0.17067 0.19144,0.29969 0.33714,0.3871 0.14566,0.0874 0.33506,0.13111 0.56816,0.13111 0.26636,0 0.52442,-0.025 0.77417,-0.0749 l 0,1.898 c -0.20813,0.0499 -0.39543,0.0957 -0.56191,0.13735 -0.1665,0.0416 -0.33299,0.0749 -0.49947,0.0999 -0.1665,0.025 -0.34339,0.0458 -0.53069,0.0624 -0.18731,0.0167 -0.40583,0.025 -0.65555,0.025 -0.88241,0 -1.53382,-0.21644 -1.95419,-0.64931 -0.4204,-0.43287 -0.67221,-1.0697 -0.75545,-1.91048 l -0.0749,0 c -0.46618,0.84078 -1.06345,1.49426 -1.79185,1.96042 -0.72841,0.46617 -1.61289,0.69928 -2.65344,0.69928 l 0,0 z m 4.08318,-6.50564 -1.79809,0.025 c -0.37462,0.0167 -0.73049,0.0479 -1.06763,0.0937 -0.33715,0.0458 -0.63266,0.14152 -0.88656,0.2872 -0.25391,0.14567 -0.45577,0.35587 -0.60561,0.63057 -0.14985,0.27472 -0.22477,0.64933 -0.22477,1.12383 0,0.64098 0.14776,1.11756 0.44329,1.42973 0.29551,0.31218 0.68884,0.46825 1.18,0.46825 0.44952,0 0.85742,-0.0957 1.22372,-0.28719 0.36625,-0.19146 0.67634,-0.44329 0.93025,-0.75546 0.2539,-0.31217 0.4516,-0.6722 0.59312,-1.0801 0.14151,-0.4079 0.21227,-0.82412 0.21228,-1.24868 l 0,-0.68678 z m 14.74762,6.25589 0,-7.5795 c -10e-6,-0.52443 -0.0416,-1.00516 -0.12487,-1.44222 -0.0833,-0.43702 -0.22062,-0.81162 -0.41207,-1.12381 -0.19148,-0.31216 -0.44122,-0.55565 -0.74921,-0.73047 -0.30802,-0.17482 -0.68262,-0.26221 -1.12381,-0.26222 -0.42456,1e-5 -0.80957,0.0936 -1.15504,0.28094 -0.34547,0.18733 -0.64307,0.45371 -0.8928,0.79916 -0.24975,0.34548 -0.44329,0.75755 -0.58063,1.2362 -0.13736,0.47867 -0.20604,1.00519 -0.20604,1.57958 l 0,7.24234 -3.50879,0 0,-10.48891 c 0,-0.29135 -0.002,-0.59104 -0.006,-0.89906 -0.004,-0.30799 -0.0125,-0.60143 -0.025,-0.88032 -0.0125,-0.27885 -0.0229,-0.52858 -0.0312,-0.7492 -0.008,-0.22059 -0.0208,-0.385 -0.0375,-0.49322 l 3.34646,0 c 0.0166,0.0999 0.0333,0.26015 0.05,0.48074 0.0166,0.2206 0.0333,0.4641 0.0499,0.73047 0.0166,0.26639 0.0312,0.53279 0.0437,0.79916 0.0125,0.26639 0.0187,0.49115 0.0187,0.67428 l 0.0499,0 c 0.4745,-1.03223 1.06971,-1.78143 1.78562,-2.24762 0.71591,-0.46617 1.56916,-0.69925 2.55979,-0.69927 0.8158,2e-5 1.50465,0.13321 2.06656,0.39958 0.56191,0.26641 1.01975,0.63268 1.37356,1.09884 0.35377,0.46619 0.60975,1.01561 0.76793,1.64826 0.15815,0.63268 0.23724,1.3153 0.23726,2.04784 l 0,8.57843 -3.4963,0 z m 8.9662,0.24975 c -0.64931,0 -1.22994,-0.0895 -1.74191,-0.26848 -0.51196,-0.17897 -0.94691,-0.4412 -1.30486,-0.78667 -0.35796,-0.34546 -0.63268,-0.77209 -0.82414,-1.27989 -0.19146,-0.50781 -0.28719,-1.08636 -0.28719,-1.73567 0,-0.79915 0.13943,-1.47135 0.41831,-2.01663 0.27888,-0.54524 0.65971,-0.98645 1.14253,-1.32359 0.48283,-0.33714 1.04889,-0.58271 1.69822,-0.73673 0.64931,-0.15399 1.34025,-0.23515 2.0728,-0.24348 l 2.90943,-0.0499 0,-0.68678 c -1e-5,-0.49113 -0.0437,-0.90111 -0.13111,-1.22995 -0.0874,-0.32881 -0.21436,-0.59727 -0.38085,-0.80539 -0.16651,-0.2081 -0.37253,-0.35586 -0.6181,-0.44328 -0.24558,-0.0874 -0.52653,-0.13111 -0.84285,-0.13112 -0.29137,10e-6 -0.55151,0.0291 -0.78043,0.0874 -0.22893,0.0583 -0.42664,0.16026 -0.59313,0.30592 -0.16649,0.1457 -0.30177,0.34132 -0.40582,0.58688 -0.10405,0.24558 -0.17689,0.55568 -0.21851,0.93027 L 311.2882,250.612 c 0.0999,-0.59103 0.28304,-1.13004 0.54943,-1.61704 0.26638,-0.48698 0.63473,-0.90945 1.10508,-1.26741 0.47033,-0.35795 1.04889,-0.63473 1.73566,-0.83038 0.68676,-0.19561 1.49217,-0.29342 2.4162,-0.29343 0.84077,1e-5 1.58997,0.10407 2.24762,0.31216 0.65762,0.20813 1.21538,0.51822 1.67323,0.93027 0.45784,0.41207 0.80746,0.9178 1.04889,1.51714 0.24141,0.59939 0.36211,1.29449 0.36212,2.08531 l 0,4.9198 c -10e-6,0.31633 0.0146,0.59937 0.0437,0.84909 0.0291,0.24975 0.0832,0.45995 0.16231,0.63058 0.0791,0.17067 0.19146,0.29969 0.33716,0.3871 0.14565,0.0874 0.33504,0.13111 0.56814,0.13111 0.26639,0 0.52444,-0.025 0.77419,-0.0749 l 0,1.898 c -0.20813,0.0499 -0.39543,0.0957 -0.56191,0.13735 -0.1665,0.0416 -0.33299,0.0749 -0.49946,0.0999 -0.16651,0.025 -0.34341,0.0458 -0.5307,0.0624 -0.18732,0.0167 -0.40583,0.025 -0.65556,0.025 -0.88242,0 -1.53381,-0.21644 -1.95418,-0.64931 -0.4204,-0.43287 -0.67221,-1.0697 -0.75546,-1.91048 l -0.0749,0 c -0.46617,0.84078 -1.06345,1.49426 -1.79185,1.96042 -0.7284,0.46617 -1.61288,0.69928 -2.65345,0.69928 l 0,0 z m 4.08319,-6.50564 -1.7981,0.025 c -0.37461,0.0167 -0.73048,0.0479 -1.06762,0.0937 -0.33715,0.0458 -0.63266,0.14152 -0.88657,0.2872 -0.2539,0.14567 -0.45577,0.35587 -0.6056,0.63057 -0.14986,0.27472 -0.22478,0.64933 -0.22477,1.12383 -10e-6,0.64098 0.14775,1.11756 0.44328,1.42973 0.29552,0.31218 0.68886,0.46825 1.18,0.46825 0.44952,0 0.85743,-0.0957 1.22372,-0.28719 0.36627,-0.19146 0.67636,-0.44329 0.93027,-0.75546 0.25388,-0.31217 0.45158,-0.6722 0.59311,-1.0801 0.14151,-0.4079 0.21227,-0.82412 0.21228,-1.24868 l 0,-0.68678 z m 5.99435,6.25589 0,-10.33907 c 0,-0.29135 -0.002,-0.59936 -0.006,-0.92403 -0.004,-0.32464 -0.0125,-0.63473 -0.025,-0.93027 -0.0125,-0.29551 -0.0229,-0.56189 -0.0312,-0.79915 -0.008,-0.23724 -0.0208,-0.40997 -0.0375,-0.51819 l 3.34645,0 c 0.0166,0.0999 0.0333,0.27263 0.0499,0.51819 0.0167,0.24559 0.0333,0.51406 0.05,0.8054 0.0166,0.29137 0.0312,0.58066 0.0437,0.86783 0.0125,0.28722 0.0187,0.51822 0.0187,0.69302 l 0.0499,0 c 0.17481,-0.49113 0.34963,-0.93026 0.52445,-1.31736 0.1748,-0.38707 0.38084,-0.7159 0.61809,-0.98645 0.23725,-0.27053 0.52235,-0.47865 0.85535,-0.62434 0.33298,-0.14567 0.74504,-0.21851 1.2362,-0.21853 0.2081,2e-5 0.41414,0.0188 0.61809,0.0562 0.20395,0.0375 0.36002,0.0812 0.46825,0.13111 l 0,2.9344 c -0.22477,-0.0499 -0.45161,-0.0936 -0.68053,-0.13111 -0.22892,-0.0375 -0.50156,-0.0562 -0.81789,-0.0562 -0.87408,1e-5 -1.5546,0.35381 -2.04158,1.06139 -0.487,0.70758 -0.73049,1.75649 -0.73048,3.14668 l 0,6.63048 -3.5088,0 z m 8.90378,-15.94564 0,-2.58478 3.5088,0 0,2.58478 -3.5088,0 z m 0,15.94564 0,-13.51071 3.5088,0 0,13.51071 -3.5088,0 z m 9.17851,0.24975 c -0.64932,0 -1.22996,-0.0895 -1.74191,-0.26848 -0.51197,-0.17897 -0.94692,-0.4412 -1.30488,-0.78667 -0.35795,-0.34546 -0.63266,-0.77209 -0.82412,-1.27989 -0.19147,-0.50781 -0.2872,-1.08636 -0.2872,-1.73567 0,-0.79915 0.13944,-1.47135 0.41832,-2.01663 0.27886,-0.54524 0.65971,-0.98645 1.14253,-1.32359 0.48282,-0.33714 1.04889,-0.58271 1.6982,-0.73673 0.64931,-0.15399 1.34025,-0.23515 2.07281,-0.24348 l 2.90943,-0.0499 0,-0.68678 c 0,-0.49113 -0.0437,-0.90111 -0.13111,-1.22995 -0.0874,-0.32881 -0.21437,-0.59727 -0.38085,-0.80539 -0.1665,-0.2081 -0.37254,-0.35586 -0.6181,-0.44328 -0.24558,-0.0874 -0.52653,-0.13111 -0.84286,-0.13112 -0.29136,10e-6 -0.5515,0.0291 -0.78041,0.0874 -0.22893,0.0583 -0.42664,0.16026 -0.59313,0.30592 -0.16649,0.1457 -0.30177,0.34132 -0.40582,0.58688 -0.10407,0.24558 -0.17691,0.55568 -0.21852,0.93027 l -3.65864,-0.17481 c 0.0999,-0.59103 0.28304,-1.13004 0.54942,-1.61704 0.26639,-0.48698 0.63475,-0.90945 1.10509,-1.26741 0.47032,-0.35795 1.04889,-0.63473 1.73566,-0.83038 0.68677,-0.19561 1.49217,-0.29342 2.41621,-0.29343 0.84075,1e-5 1.58996,0.10407 2.24762,0.31216 0.65762,0.20813 1.21536,0.51822 1.67323,0.93027 0.45784,0.41207 0.80746,0.9178 1.04889,1.51714 0.24139,0.59939 0.3621,1.29449 0.3621,2.08531 l 0,4.9198 c 0,0.31633 0.0146,0.59937 0.0437,0.84909 0.0291,0.24975 0.0832,0.45995 0.16233,0.63058 0.0791,0.17067 0.19146,0.29969 0.33714,0.3871 0.14567,0.0874 0.33505,0.13111 0.56815,0.13111 0.26638,0 0.52444,-0.025 0.77418,-0.0749 l 0,1.898 c -0.20811,0.0499 -0.39542,0.0957 -0.5619,0.13735 -0.1665,0.0416 -0.33299,0.0749 -0.49947,0.0999 -0.1665,0.025 -0.34341,0.0458 -0.53069,0.0624 -0.18731,0.0167 -0.40583,0.025 -0.65555,0.025 -0.88242,0 -1.53381,-0.21644 -1.95419,-0.64931 -0.4204,-0.43287 -0.67222,-1.0697 -0.75545,-1.91048 l -0.0749,0 c -0.46619,0.84078 -1.06347,1.49426 -1.79186,1.96042 -0.7284,0.46617 -1.61288,0.69928 -2.65344,0.69928 l 0,0 z m 4.08318,-6.50564 -1.79811,0.025 c -0.3746,0.0167 -0.73047,0.0479 -1.06761,0.0937 -0.33716,0.0458 -0.63267,0.14152 -0.88656,0.2872 -0.25391,0.14567 -0.45577,0.35587 -0.6056,0.63057 -0.14986,0.27472 -0.22478,0.64933 -0.22478,1.12383 0,0.64098 0.14776,1.11756 0.44329,1.42973 0.29552,0.31218 0.68885,0.46825 1.18,0.46825 0.44952,0 0.85742,-0.0957 1.2237,-0.28719 0.36628,-0.19146 0.67636,-0.44329 0.93027,-0.75546 0.25388,-0.31217 0.4516,-0.6722 0.59313,-1.0801 0.14151,-0.4079 0.21227,-0.82412 0.21227,-1.24868 l 0,-0.68678 z"
               style="font-size:26.18060684px;font-style:normal;font-variant:normal;font-weight:bold;font-stretch:normal;text-align:start;line-height:125%;writing-mode:lr-tb;text-anchor:start;fill:#877b00;fill-opacity:1;stroke:none;font-family:Liberation Sans;-inkscape-font-specification:Liberation Sans Bold" />
          </g>
          <g
             transform="matrix(1.6328266,0,0,1.6323873,352.31695,379.37722)"
             id="g3857">
            <path
               id="path3859"
               d="m -41.03125,-37.9375 c -12.880656,0 -23.343749,9.56773 -23.34375,21.375 0,6.50592 3.182539,12.3570999 8.1875,16.28124993 l -2.6875,10.06249997 11.09375,-5.875 c 2.139179,0.59294 4.400648,0.9375 6.75,0.9375 12.880656,0 23.343749,-9.59898 23.34375,-21.4062499 0,-11.80727 -10.463095,-21.375 -23.34375,-21.375 z"
               style="fill:#73d216;fill-opacity:1;stroke:none" />
            <path
               sodipodi:nodetypes="cscccsccc"
               style="fill:#3465a4;fill-opacity:1;stroke:none"
               d="m -8.03125,-53.9375 c 12.88066,0 23.34375,9.56773 23.34375,21.375 0,6.50592 -3.18254,12.3571 -8.1875,16.28125 L 9.8125,-6.2187501 -1.28125,-12.09375 c -2.13918,0.59294 -4.40065,0.9375 -6.75,0.9375 -3.935408,0 -7.645142,-0.896042 -10.89974,-2.477341 L -31.229513,-34.961465 C -29.926225,-45.638998 -20.027169,-53.9375 -8.03125,-53.9375 z"
               id="path3861" />
            <path
               id="path3863"
               d="m -31.0625,-35.90625 c -0.18795,1.09198 -0.3125,2.203388 -0.3125,3.34375 0,8.541894 5.46912,15.911695 13.375,19.34375 0.18795,-1.092506 0.3125,-2.203388 0.3125,-3.34375 0,-8.542496 -5.46822,-15.921057 -13.375,-19.34375 z"
               style="fill:#1cbe44;fill-opacity:1;stroke:none" />
            <g
               inkscape:export-ydpi="72.000000"
               inkscape:export-xdpi="72.000000"
               inkscape:export-filename="/home/duffy/Desktop/gnome_logo_horiz.png"
               style="fill:#ffffff;fill-opacity:1;fill-rule:nonzero;stroke:none"
               transform="matrix(0.235876,0,0,0.235876,-52.846802,-30.19734)"
               id="g3865">
              <g
                 id="g3867"
                 style="fill:#ffffff;fill-opacity:1">
                <path
                   id="path3869"
                   d="M 86.068,0 C 61.466,0 56.851,35.041 70.691,35.041 84.529,35.041 110.671,0 86.068,0 z"
                   style="fill:#ffffff;fill-opacity:1" />
                <path
                   id="path3871"
                   d="M 45.217,30.699 C 52.586,31.149 60.671,2.577 46.821,4.374 32.976,6.171 37.845,30.249 45.217,30.699 z"
                   style="fill:#ffffff;fill-opacity:1" />
                <path
                   id="path3873"
                   d="M 11.445,48.453 C 16.686,46.146 12.12,23.581 3.208,29.735 -5.7,35.89 6.204,50.759 11.445,48.453 z"
                   style="fill:#ffffff;fill-opacity:1" />
                <path
                   id="path3875"
                   d="M 26.212,36.642 C 32.451,35.37 32.793,9.778 21.667,14.369 10.539,18.961 19.978,37.916 26.212,36.642 l 0,0 z"
                   style="fill:#ffffff;fill-opacity:1" />
                <path
                   d="m 58.791,93.913 c 1.107,8.454 -6.202,12.629 -13.36,7.179 C 22.644,83.743 83.16,75.088 79.171,51.386 75.86,31.712 15.495,37.769 8.621,68.553 3.968,89.374 27.774,118.26 52.614,118.26 c 12.22,0 26.315,-11.034 28.952,-25.012 C 83.58,82.589 57.867,86.86 58.791,93.913 l 0,0 z"
                   id="path3877"
                   style="fill:#ffffff;fill-opacity:1" />
              </g>
            </g>
            <path
               id="path3879"
               style="fill:#ffffff;fill-opacity:1"
               d="m -6.4333621,-45.916667 -4.3764049,0.42081 0,18.029356 4.32966,-0.654594 0,-7.686788 5.82586526,8.528409 4.56345164,-1.449456 -5.9661446,-8.201112 6.0129007,-7.733547 -4.6569638,-1.066051 -5.7791092,7.733546 0.046745,-7.920573 z m -9.9217559,4.395123 c -0.04949,0.0051 -0.103007,0.01878 -0.140268,0.05611 l -1.720637,1.720644 c -0.07227,0.07249 -0.0811,0.183436 -0.02806,0.271188 l 2.010533,3.31972 c -0.356986,0.600127 -0.646893,1.24388 -0.850969,1.926374 l -3.693763,0.766808 c -0.102793,0.02125 -0.177686,0.119099 -0.177686,0.224433 l 0,2.431344 c 0,0.102789 0.07817,0.190842 0.177686,0.21508 l 3.581552,0.869674 c 0.191514,0.790145 0.48739,1.546263 0.879016,2.234966 l -2.075998,3.160749 c -0.0579,0.08828 -0.0466,0.206028 0.02806,0.280539 l 1.720647,1.720646 c 0.07249,0.07226 0.183666,0.08131 0.271188,0.02805 l 3.25426,-1.973128 c 0.638282,0.368517 1.329311,0.663722 2.0573,0.860322 l 0.757445,3.647013 c 0.02125,0.103093 0.109826,0.17768 0.215082,0.17768 l 2.4313492,0 c 0.1020438,0 0.1908422,-0.06853 0.2150824,-0.168325 l 0.8977253,-3.665716 c 0.7507952,-0.202441 1.4586635,-0.502958 2.1133939,-0.88838 l 3.2075148,2.104047 c 0.088429,0.05761 0.2055766,0.04646 0.28053634,-0.02805 l 1.7112986,-1.720645 c 0.0727093,-0.07256 0.0906682,-0.18366 0.0373958,-0.271188 l -1.16891259,-1.926374 -0.38340863,0.121568 c -0.0553549,0.01706 -0.1166998,-0.0079 -0.14961714,-0.05611 0,0 -0.73838968,-1.086184 -1.70193838,-2.496804 -1.1523756,2.254929 -3.5025057,3.796639 -6.2092851,3.796639 -3.8462905,-1e-6 -6.9667415,-3.120447 -6.9667415,-6.966738 0,-2.829245 1.691861,-5.259267 4.114588,-6.34955 l 0,-1.795454 c -0.440935,0.154332 -0.866901,0.340537 -1.271773,0.56108 -7.51e-4,-4.49e-4 7.5e-4,-0.0089 0,-0.0094 l -3.282318,-2.150804 c -0.04415,-0.02888 -0.09078,-0.03316 -0.140279,-0.02806 z" />
          </g>
        </g>
      </g>
    </g>
  </g>
</svg>
